<?xml version="1.0" encoding="UTF-8" standalone="no"?>
<!-- Created with Inkscape (http://www.inkscape.org/) -->

<svg
   xmlns:dc="http://purl.org/dc/elements/1.1/"
   xmlns:cc="http://creativecommons.org/ns#"
   xmlns:rdf="http://www.w3.org/1999/02/22-rdf-syntax-ns#"
   xmlns:svg="http://www.w3.org/2000/svg"
   xmlns="http://www.w3.org/2000/svg"
   xmlns:sodipodi="http://sodipodi.sourceforge.net/DTD/sodipodi-0.dtd"
   xmlns:inkscape="http://www.inkscape.org/namespaces/inkscape"
   id="svg2"
   version="1.1"
   inkscape:version="0.48.4 r9939"
   width="119.33987"
   height="118.44839"
   sodipodi:docname="settings.svg">
  <metadata
     id="metadata8">
    <rdf:RDF>
      <cc:Work
         rdf:about="">
        <dc:format>image/svg+xml</dc:format>
        <dc:type
           rdf:resource="http://purl.org/dc/dcmitype/StillImage" />
        <dc:title></dc:title>
      </cc:Work>
    </rdf:RDF>
  </metadata>
  <defs
     id="defs6" />
  <sodipodi:namedview
     pagecolor="#ffffff"
     bordercolor="#666666"
     borderopacity="1"
     objecttolerance="10"
     gridtolerance="10"
     guidetolerance="10"
     inkscape:pageopacity="0"
     inkscape:pageshadow="2"
     inkscape:window-width="993"
     inkscape:window-height="691"
     id="namedview4"
     showgrid="false"
     inkscape:zoom="3.5779603"
     inkscape:cx="65.976904"
     inkscape:cy="50.78283"
     inkscape:window-x="266"
     inkscape:window-y="12"
     inkscape:window-maximized="0"
     inkscape:current-layer="svg2"
     fit-margin-top="0"
     fit-margin-left="0"
     fit-margin-right="0"
     fit-margin-bottom="0" />
  <path
     style="fill:none;stroke:#00ff00;stroke-width:1px;stroke-linecap:butt;stroke-linejoin:miter;stroke-opacity:1"
     d="m 58.678295,103.86582 c -6.82594,-0.18118 -10.80836,6.9252 -15.28069,13.18335 L 26.94924,109.66662 c 1.042495,-6.84687 4.517495,-14.640633 -0.18106,-19.595423 -4.69856,-4.95478 -12.53952,-2.74581 -20.12711,-1.48304 L 0.5,72.157197 c 5.84803,-3.68426 13.81626,-6.73809 13.99744,-13.56403 0.18117,-6.82594 -6.9252,-10.80836 -13.18336,-15.28069 l 7.38257,-16.44837 c 6.84686,1.0425 14.64063,4.5175 19.595395,-0.18106 4.95479,-4.698563 2.74581,-12.539523 1.48305,-20.127113 L 46.651795,0.5 c 4.13,5.933185 7.18383,13.901407 14.00977,14.082585 6.82594,0.181179 10.80836,-6.925197 15.28069,-13.183346 l 16.44837,7.382553 c -1.0425,6.846861 -4.5175,14.640629 0.18106,19.595415 4.69856,4.95478 12.539525,2.74581 20.127105,1.48304 l 6.14108,16.43096 c -5.84803,3.68426 -13.81626,6.73809 -13.99745,13.56403 -0.18117,6.82594 6.9252,10.80836 13.18336,15.28069 l -7.38257,16.44837 c -6.84685,-1.0425 -14.640625,-4.5175 -19.595395,0.18106 -4.95479,4.69856 -2.74581,12.539523 -1.48305,20.127113 l -16.8767,6.05593 c -4.13,-5.93318 -7.18383,-13.9014 -14.00977,-14.08258 z"
     id="path2987-6"
     inkscape:connector-curvature="0"
     sodipodi:nodetypes="zcczcczcczcczcczcczcczccz" />
</svg>
